<?xml version="1.0" encoding="utf-8"?>
<!-- Generator: Adobe Illustrator 24.1.0, SVG Export Plug-In . SVG Version: 6.00 Build 0)  -->
<svg version="1.1" id="Layer_1" xmlns="http://www.w3.org/2000/svg" xmlns:xlink="http://www.w3.org/1999/xlink" x="0px" y="0px"
	width="108.08" height="36.85" viewBox="0 0 108.08 36.85" style="enable-background:new 0 0 108.1 36.8;" xml:space="preserve">
<style type="text/css">
	.st0{fill:#81B3D2;}
</style>
<path class="st0" d="M44.6,26.8c0.2,0,0.4,0,0.5-0.1V28c-0.4,0.1-0.8,0.2-1.2,0.2c-0.7,0.1-1.4-0.3-1.7-1c-0.9,0.7-2,1.1-3.1,1.1
	c-1.5,0-2.9-0.8-2.9-2.5c0-2.1,2-2.8,3.7-2.8c0.7,0,1.5,0.1,2.2,0.3v-0.4c0-1-0.8-1.8-2.2-1.8c-1,0-2.1,0.2-3,0.6V20
	c1-0.4,2.1-0.5,3.2-0.5c2.4,0,3.8,1.1,3.8,3.6v3c0,0.3,0.2,0.6,0.5,0.6l0,0L44.6,26.8L44.6,26.8z M38.2,25.6
	c0.1,0.7,0.7,1.3,1.4,1.3l0,0h0.1c0.9,0,1.8-0.4,2.4-1v-1.4c-0.6-0.1-1.2-0.2-1.8-0.2C39.3,24.3,38.2,24.6,38.2,25.6L38.2,25.6
	L38.2,25.6z M50.5,19.5c0.9,0,1.8,0.2,2.6,0.6v1.8c-0.7-0.5-1.5-0.7-2.3-0.7c-1.5-0.1-2.8,1.1-2.9,2.6c-0.1,1.5,1.1,2.8,2.6,2.9
	c0.1,0,0.2,0,0.3,0c0.9,0,1.7-0.2,2.4-0.6v1.7c-0.9,0.4-1.8,0.6-2.8,0.6c-2.3,0.1-4.3-1.6-4.5-3.9c0-0.1,0-0.3,0-0.4
	c-0.1-2.4,1.8-4.4,4.2-4.5l0,0L50.5,19.5L50.5,19.5z M62.8,26.8c0.2,0,0.4,0,0.5-0.1V28c-0.4,0.1-0.8,0.2-1.2,0.2
	c-0.7,0.1-1.4-0.3-1.7-1c-0.9,0.7-2,1.1-3.1,1.1c-1.5,0-2.9-0.8-2.9-2.5c0-2.1,2-2.8,3.7-2.8c0.7,0,1.5,0.1,2.2,0.3v-0.4
	c0-1-0.8-1.8-2.2-1.8c-1,0-2.1,0.2-3,0.6V20c1-0.4,2.1-0.5,3.2-0.5c2.4,0,3.8,1.1,3.8,3.6v3c0,0.3,0.2,0.6,0.5,0.6l0,0L62.8,26.8
	L62.8,26.8z M56.4,25.6c0.1,0.7,0.7,1.3,1.4,1.3l0,0h0.1c0.9,0,1.8-0.4,2.4-1v-1.4c-0.6-0.1-1.2-0.2-1.8-0.2
	C57.5,24.3,56.4,24.6,56.4,25.6L56.4,25.6L56.4,25.6z M73.1,16v12.2h-1.7v-1.3c-0.8,1-1.9,1.6-3.2,1.5c-2.4-0.2-4.3-2.3-4.1-4.7
	c0.1-2.2,1.9-3.9,4.1-4.1c1.1,0,2.2,0.4,3,1.3V16H73.1z M68.6,21.1c-1.5,0-2.8,1.2-2.8,2.8c0,1.6,1.2,2.8,2.8,2.8
	c1.2,0,2.2-0.7,2.7-1.7v-2C70.8,21.8,69.7,21.2,68.6,21.1L68.6,21.1z M79.1,19.5c3.3,0,4.5,2.7,3.9,5.1h-6.2
	c0.2,1.5,1.7,2.1,3.2,2.1c0.9,0,1.8-0.2,2.6-0.6v1.6c-0.9,0.4-2,0.6-3,0.6c-2.5,0-4.8-1.4-4.8-4.4c-0.1-2.3,1.7-4.3,4-4.4l0,0
	L79.1,19.5L79.1,19.5z M79.2,21.1c-1.3-0.1-2.3,0.8-2.4,2.1v0.1h4.7c0.1-1.1-0.7-2.1-1.8-2.2C79.5,21,79.3,21,79.2,21.1L79.2,21.1z
	 M84.9,28.1v-8.3h1.7v1c0.7-0.8,1.7-1.3,2.8-1.3c1.1-0.1,2.1,0.5,2.6,1.4c0.8-0.8,1.8-1.3,2.9-1.3c1.7-0.1,3.1,1.2,3.2,2.9
	c0,0.1,0,0.3,0,0.4v5.2h-1.9v-5.2c0.1-0.9-0.5-1.7-1.4-1.7l0,0h-0.3c-0.8,0.1-1.6,0.5-2.1,1.1v5.8h-1.9v-5.2
	c0.1-0.9-0.6-1.7-1.4-1.7l0,0h-0.2c-0.9,0.1-1.7,0.6-2.2,1.3v5.6L84.9,28.1L84.9,28.1z M106.2,19.7h1.9l-3.9,9.5
	c-0.9,2.2-2.1,2.9-3.3,2.9c-0.4,0-0.7-0.1-1.1-0.1v-1.6c0.3,0.1,0.6,0.1,0.8,0.1c0.9,0,1.6-0.6,2.1-1.9l0.2-0.4l-4-8.4h2l2.9,6.3
	L106.2,19.7z M38.7,1.4v4.8c0.7-0.7,1.7-1.1,2.7-1.1c1.8-0.1,3.3,1.3,3.4,3.1c0,0.1,0,0.2,0,0.3v5.1H43V8.7c0.1-1-0.6-1.9-1.6-2l0,0
	h-0.3c-1,0.1-1.8,0.6-2.3,1.4v5.5h-1.9V1.4H38.7L38.7,1.4z M49.9,2.3v3h3v1.6h-3v3.8c0,1.1,0.5,1.5,1.6,1.5c0.6,0,1.2-0.1,1.7-0.3
	v1.6c-0.7,0.2-1.5,0.4-2.2,0.4c-1.4,0.2-2.7-0.8-2.8-2.2c0-0.2,0-0.4,0-0.5V6.9h-1.6V5.2h1.5V2.7L49.9,2.3z M55.4,13.6V5.3h1.7v1
	C57.8,5.5,58.8,5,59.9,5c1-0.1,2,0.4,2.6,1.3C63.2,5.5,64.3,5,65.4,5c1.7-0.1,3.1,1.2,3.2,2.9c0,0.2,0,0.3,0,0.5v5.2h-1.9V8.4
	c0.1-0.9-0.5-1.7-1.4-1.7l0,0h-0.2c-0.8,0.1-1.6,0.5-2.1,1.1v5.8h-1.9V8.4c0.1-0.9-0.5-1.7-1.4-1.7l0,0h-0.2
	c-0.9,0.1-1.7,0.6-2.2,1.3v5.6H55.4L55.4,13.6z M71.3,1.4h1.8v12.1h-1.8V1.4z M14.7,0h-0.2L0,1.5v26.6l14.6,8.7l14.6-8.7V1.5L14.7,0
	z M27.2,27l-12.7,7.5L1.9,27V16.2l12.6,7.5v1.3l-8.6-5.1v1.3l8.7,5.2v1.4l-8.7-5.2v1.4l8.7,5.2l8.7-5.2v-5.7l3.9-2.3L27.2,27
	L27.2,27z M27.2,14.6l-3.5,2l-1.6,1L14.5,13v1.3l6.5,3.9l0,0l-0.1,0.1l-1,0.5l-5.4-3.2V17l4.2,2.5l-1,0.7l-3.2-1.9v1.3l2.1,1.2
	L14.5,22L2,14.6l12.5-7.5L27.2,14.6z M27.2,13.2L14.5,5.7L1.9,13.2v-10l12.7-1.3l12.6,1.3V13.2L27.2,13.2z"/>
</svg>
